<svg width="222" height="87" viewBox="0 0 222 87" fill="none" xmlns="http://www.w3.org/2000/svg">
<path d="M8.91397 46.0337C8.91397 48.4628 6.91145 50.0822 4.03622 50.0822C3.17132 50.0822 2.29862 50.0822 1.43372 50.0822V55.8474H0V42.2604H3.89597C7.01274 42.2604 8.91397 43.5965 8.91397 46.0337ZM7.28546 46.0337C7.28546 43.6531 6.05433 42.4791 3.63883 42.4791H1.43372V49.8798H3.61546C5.96083 49.8636 7.28546 48.3738 7.28546 46.0175V46.0337Z" fill="#F5F5F5"/>
<path d="M23.578 53.5397V55.8879H14.6641V42.2604H23.2352V43.9689C22.3756 43.2496 21.3491 42.7777 20.2587 42.6005C20.0024 42.5433 19.7415 42.5108 19.4795 42.5033H16.1445V44.6167C16.1445 45.2888 16.1445 46.1794 16.1445 47.3535V48.7057H19.2613V48.9487H16.1445V55.6045C16.9237 55.6045 19.0275 55.6612 19.5652 55.6612H19.7288C19.8508 55.6695 19.9731 55.6695 20.095 55.6612H20.1808C20.86 55.5803 21.5147 55.3492 22.1007 54.9832C22.6868 54.6173 23.1905 54.125 23.578 53.5397Z" fill="#F5F5F5"/>
<path d="M37.6821 53.5397V55.8474H29.3369V42.2604H30.7706V55.6045C31.7135 55.6045 33.2329 55.6612 33.677 55.6612H33.8407H34.2069H34.2926C34.9708 55.5803 35.6243 55.349 36.2091 54.983C36.7938 54.617 37.2961 54.1248 37.6821 53.5397Z" fill="#F5F5F5"/>
<path d="M50.5927 42.2604L49.2837 45.7827L47.4058 50.811L49.2759 45.7989C49.1824 46.0094 49.0967 46.2199 49.0265 46.4062L47.4058 50.811L45.5435 55.8474C45.5435 55.8474 45.5046 55.9041 45.4111 55.9041H45.1929C45.0838 55.9041 45.0604 55.9041 45.0449 55.8474L43.8137 52.6085L43.6735 52.2523L41.4294 46.3576C41.206 45.753 41.0034 45.2348 40.8216 44.8029L39.8398 42.2604H41.445L42.1463 44.139V44.2037C42.3411 44.7705 42.6294 45.5236 43.0034 46.5276L44.4059 50.2361L44.5695 50.6814L45.7851 53.9203C45.7851 53.977 45.8396 54.0174 45.8786 54.0174C45.9176 54.0174 45.9565 54.0174 45.9721 53.9203L47.7798 49.0215L48.8006 46.2604L48.8863 46.0175L48.9486 45.8637L50.2732 42.2847L50.5927 42.2604Z" fill="#F5F5F5"/>
<path d="M56.1016 55.8474V42.2604H57.5353V55.8474H56.1016Z" fill="#F5F5F5"/>
<path d="M75.5813 52.9243L75.4645 55.2077C73.9266 55.8212 72.288 56.1155 70.6413 56.0741C66.5817 56.0741 63.4805 53.1105 63.4805 49.0782C63.4805 45.0458 66.831 42.0823 70.727 42.0823C72.3214 42.0928 73.9025 42.3858 75.4021 42.9487L75.5813 45.1916C75.1551 44.5352 74.6287 43.9554 74.023 43.475C73.2282 42.8032 72.2608 42.3892 71.2412 42.2847H70.7971C67.392 42.2847 65.2181 45.0539 65.2181 49.1025C65.2181 53.151 67.205 55.904 70.6724 55.904C70.8826 55.9165 71.0934 55.9165 71.3036 55.904L71.7867 55.8393L71.9971 55.7907H72.0516C72.4753 55.6533 72.8771 55.4514 73.2438 55.1915C74.1826 54.6358 74.9832 53.8593 75.5813 52.9243Z" fill="#F5F5F5"/>
<path d="M124.414 49.5964C124.414 51.4587 124.414 53.5802 124.414 55.9202C124.414 56.0336 124.359 56.0174 124.265 55.9202C124.009 55.7177 123.729 55.5491 123.432 55.4182C122.054 55.8599 120.619 56.0757 119.177 56.0579C115.11 56.0579 112.009 53.0943 112.009 49.062C112.009 45.0296 115.32 42.0823 119.216 42.0823C120.811 42.0928 122.392 42.3858 123.891 42.9487L124.008 45.2078C123.64 44.6123 123.182 44.082 122.653 43.6369L122.481 43.4993C121.69 42.8264 120.725 42.4122 119.707 42.309H118.928H118.648C115.889 42.5924 114.058 44.7948 113.723 48.0175V48.3413C113.723 48.5951 113.723 48.8461 113.723 49.0944C113.707 50.2437 113.897 51.3861 114.284 52.4628C114.397 52.7395 114.525 53.0098 114.666 53.2725L114.814 53.5235C114.967 53.7699 115.137 54.0052 115.32 54.2279C115.383 54.2927 115.445 54.3656 115.515 54.4304C115.996 54.9033 116.563 55.2721 117.182 55.5153C117.801 55.7586 118.461 55.8715 119.123 55.8474H119.357C119.492 55.8557 119.627 55.8557 119.762 55.8474C119.913 55.8396 120.064 55.8234 120.214 55.7988C120.064 55.8234 119.913 55.8396 119.762 55.8474L120.237 55.7826L120.447 55.734H120.502C120.953 55.6276 121.384 55.4472 121.78 55.1996C122.198 54.9525 122.588 54.6563 122.941 54.317C122.941 53.9607 122.941 53.3535 122.941 52.2523C122.941 51.4425 122.941 50.1227 122.941 49.6369H118.048V49.4587H124.281C124.359 49.4345 124.414 49.4911 124.414 49.5964ZM121.133 55.5964L121.46 55.4911L121.133 55.5964ZM121.912 55.2887L122.169 55.1672L121.912 55.2887Z" fill="#F5F5F5"/>
<path d="M143.465 49.0782C143.459 50.9372 142.744 52.7178 141.476 54.0294C140.208 55.3409 138.491 56.0762 136.702 56.0741C135.37 56.0693 134.068 55.6542 132.963 54.8813C131.858 54.1084 130.997 53.0124 130.491 51.7317C129.985 50.451 129.855 49.0431 130.118 47.6858C130.382 46.3286 131.026 45.0829 131.97 44.1061C132.915 43.1293 134.117 42.4653 135.424 42.1979C136.731 41.9306 138.085 42.0718 139.315 42.6039C140.546 43.136 141.596 44.0349 142.335 45.1873C143.074 46.3396 143.467 47.6936 143.465 49.0782ZM141.79 49.0782C141.79 45.0296 139.975 42.2604 136.889 42.2604C133.803 42.2604 131.801 45.0377 131.801 49.0782C131.801 53.1186 133.546 55.8797 136.624 55.8797C139.702 55.8797 141.814 53.1105 141.814 49.0782H141.79Z" fill="#F5F5F5"/>
<path d="M160.786 49.0782C160.786 53.1267 157.67 55.8798 153.633 55.8798H153.384L149.441 55.8474V42.2847H151.717H153.563C157.459 42.2604 160.786 44.9729 160.786 49.0782ZM159.103 49.0782C159.103 45.0296 156.906 42.4386 153.524 42.4386H150.961V55.6045C151.537 55.6045 152.893 55.6854 153.672 55.6854C157.093 55.6854 159.103 53.1105 159.103 49.0782Z" fill="#F5F5F5"/>
<path d="M178.092 49.0782C178.092 53.1267 174.975 55.8798 170.939 55.8798H170.69L166.747 55.8474V42.2847H169.022H170.869C174.765 42.2604 178.092 44.9729 178.092 49.0782ZM176.409 49.0782C176.409 45.0296 174.212 42.4386 170.83 42.4386H168.305V55.6045C168.882 55.6045 170.238 55.6854 171.017 55.6854C174.399 55.6854 176.409 53.1105 176.409 49.0782Z" fill="#F5F5F5"/>
<path d="M192.968 53.5397V55.8879H184.054V42.2604H192.625V43.9689C191.77 43.2521 190.749 42.7804 189.664 42.6005C189.408 42.5433 189.147 42.5108 188.885 42.5033H185.589V44.6167C185.589 45.2888 185.589 46.1794 185.589 47.3535V48.7057H188.705V48.9487H185.589V55.6045C186.368 55.6045 188.472 55.6612 189.009 55.6612H189.173C189.295 55.6695 189.417 55.6695 189.539 55.6612H189.625C190.295 55.5726 190.939 55.3378 191.515 54.9722C192.091 54.6066 192.586 54.1184 192.968 53.5397Z" fill="#F5F5F5"/>
<path d="M207.304 52.3009C207.304 54.56 205.45 56.0741 203.182 56.0741C201.692 56.1139 200.204 55.9145 198.772 55.483C198.601 55.483 198.585 55.4101 198.585 55.2887C198.585 54.7705 198.585 53.5154 198.585 52.3575C198.882 53.3391 199.441 54.2125 200.198 54.8757C200.36 55.0134 200.532 55.1379 200.712 55.2482L200.876 55.3454L201.001 55.4101L201.125 55.4668C201.322 55.5626 201.525 55.6438 201.733 55.7097C202.21 55.8281 202.7 55.8852 203.19 55.8798C205.271 55.8798 206.174 54.7786 206.174 53.2239C206.174 51.3049 204.289 50.5195 202.356 49.6693C200.424 48.8191 198.273 47.8798 198.273 45.7989C198.273 43.4588 200.292 42.0661 202.699 42.0661C204.088 42.0594 205.473 42.2307 206.821 42.5762L206.946 42.6248V45.2726C206.731 44.5921 206.349 43.9811 205.839 43.4993C205.017 42.766 203.984 42.3361 202.902 42.2766H202.707C200.369 42.2766 199.473 43.4021 199.473 44.892C199.473 46.7786 201.414 47.6045 203.369 48.4466C205.325 49.2887 207.304 50.1794 207.304 52.3009Z" fill="#F5F5F5"/>
<path d="M221.954 52.3008C221.954 54.5599 220.099 56.074 217.832 56.074C216.341 56.115 214.853 55.9156 213.422 55.4829C213.25 55.4829 213.235 55.4101 213.235 55.2886C213.235 54.7704 213.235 53.5153 213.235 52.3575C213.531 53.339 214.091 54.2125 214.847 54.8757C215.009 55.0133 215.181 55.1378 215.362 55.2481L215.525 55.3453L215.65 55.4101L215.775 55.4667C215.972 55.5625 216.175 55.6437 216.382 55.7097C216.859 55.829 217.349 55.8861 217.84 55.8797C219.92 55.8797 220.824 54.7785 220.824 53.2238C220.824 51.3048 218.93 50.5194 217.006 49.6692C215.081 48.819 212.923 47.8798 212.923 45.7988C212.923 43.4587 214.941 42.066 217.349 42.066C218.735 42.0587 220.117 42.23 221.463 42.5761L221.595 42.6247V45.2725C221.388 44.5917 221.015 43.9781 220.512 43.4911C219.687 42.7577 218.651 42.3279 217.567 42.2685H217.38C215.042 42.2685 214.146 43.3939 214.146 44.8838C214.146 46.7704 216.086 47.5964 218.042 48.4385C219.998 49.2806 221.954 50.1793 221.954 52.3008Z" fill="#F5F5F5"/>
<path d="M131.403 86.333C131.46 86.4516 131.553 86.548 131.667 86.6081C131.781 86.6682 131.91 86.6889 132.037 86.6672C132.163 86.6456 132.279 86.5826 132.368 86.4875C132.457 86.3924 132.515 86.2702 132.533 86.1387C132.533 86.0172 132.618 85.7743 132.65 85.6528L132.759 85.8472C133.351 86.9322 134.091 85.4828 133.444 84.8917C132.369 83.7419 131.193 82.8108 130.406 81.2804C130.31 81.0956 130.19 80.9265 130.047 80.7784C129.845 80.5517 129.268 80.1711 129.05 79.9687C127.255 78.6284 125.6 77.0979 124.11 75.4019C123.531 74.7804 122.844 74.2802 122.084 73.9282C121.826 73.845 121.587 73.7061 121.385 73.5205C121.182 73.3349 121.019 73.1068 120.907 72.8513C120.861 72.7165 120.766 72.6059 120.642 72.5436C119.819 72.1569 119.036 71.6848 118.305 71.1347C114.058 66.1533 110.1 60.9133 106.453 55.4425C108.401 57.7988 110.458 60.3979 112.352 62.819C114.362 65.1186 116.474 67.6772 118.445 70.0092C119.224 71.1266 120.502 71.1752 121.445 72.0416C121.679 72.2764 121.733 72.6894 121.936 72.8513C122.955 73.3173 123.883 73.9762 124.671 74.7946C125.817 76.1577 127.085 77.4048 128.458 78.5193C129.058 79.0699 129.938 79.7419 130.499 80.333C130.775 80.7144 131.018 81.1209 131.224 81.5476C131.863 82.7865 132.883 83.5314 133.733 84.665C133.889 84.8695 133.984 85.1173 134.005 85.3775C134.044 86.3168 133.07 86.997 132.611 85.9119H132.766L132.681 86.1792C132.618 86.8431 131.582 86.9889 131.403 86.3492V86.333Z" fill="#F5F5F5"/>
<path d="M96.2226 56.8029C97.3758 58.8757 98.5602 60.9972 100.337 62.5275C102.039 64.1443 103.863 65.6172 105.791 66.9323C108.919 68.5443 111.937 70.3786 114.822 72.4222C115.754 73.1852 116.648 73.9959 117.502 74.8513C117.502 74.8513 120.198 78.4707 120.081 78.325C120.588 78.8351 121.453 79.7663 121.991 80.2278C122.805 81.1106 123.514 82.092 124.102 83.1509L124.928 84.4707C125.591 85.2261 126.384 85.8466 127.266 86.3006C127.476 86.4302 127.694 86.5597 127.842 86.5193C127.881 86.5075 127.916 86.4876 127.947 86.4608C127.977 86.4341 128.002 86.401 128.02 86.3636C128.037 86.3263 128.047 86.2856 128.049 86.2441C128.051 86.2026 128.044 86.1612 128.029 86.1225L128.286 85.9687L128.606 86.5355C128.686 86.6149 128.782 86.6756 128.886 86.7136C129.056 86.7793 129.236 86.8088 129.417 86.8004C129.598 86.7921 129.775 86.746 129.938 86.665L130.047 86.3897L130.133 86.1792V86.3978C130.227 87.0456 131.317 86.9727 131.286 86.2925C131.349 87.0537 130.133 87.1508 130.001 86.4302H130.133L130.055 86.7136C129.944 86.8225 129.81 86.9038 129.665 86.9515C129.519 86.9991 129.365 87.0119 129.214 86.9889C129.057 86.9965 128.901 86.9717 128.754 86.9161C128.607 86.8605 128.472 86.7752 128.357 86.665L128.014 86.1144L128.271 85.9687C128.31 86.0495 128.331 86.1382 128.334 86.2286C128.337 86.319 128.32 86.4089 128.286 86.4921C128.252 86.5753 128.201 86.6498 128.137 86.7104C128.072 86.771 127.995 86.8163 127.912 86.8431C127.612 86.8868 127.308 86.8148 127.055 86.6407C126.603 86.3897 126.144 86.1387 125.707 85.831C125.248 85.541 124.835 85.1776 124.484 84.7541L123.596 83.4424C123.007 82.4873 122.323 81.5998 121.554 80.7946C121.009 80.3412 120.097 79.3776 119.583 78.8756L116.879 75.3695C116.248 74.7865 115.141 73.7501 114.323 73.07C111.477 71.0104 108.498 69.1545 105.409 67.5153C101.513 64.6409 98.0381 61.4668 96.1914 56.8029H96.2226Z" fill="#F5F5F5"/>
<path d="M87.6047 70.5841C83.8256 68.0983 85.8282 63.0619 87.2853 59.7178C87.5283 59.2042 87.8262 58.7207 88.1735 58.2765C88.0177 58.819 87.8541 59.3372 87.745 59.8959C87.0905 63.4344 84.6282 67.4181 87.6047 70.5841Z" fill="#F5F5F5"/>
<path d="M108.814 74.665C107.832 73.7709 106.68 73.1007 105.432 72.6974C102.853 72.3169 100.165 72.6974 97.5548 72.6489C96.2146 72.6489 94.8744 72.5679 93.542 72.4464C94.8666 72.2359 96.1913 72.0902 97.5237 71.993C100.212 71.8391 102.978 71.4019 105.604 72.0659C106.893 72.5922 108.008 73.4949 108.814 74.665Z" fill="#F5F5F5"/>
<path d="M95.7944 72.163C94.9411 71.4153 93.9784 70.814 92.9426 70.3817C92.3948 70.3358 91.8435 70.3906 91.3141 70.5436C90.7686 70.6732 90.2154 70.827 89.6778 70.997C88.7661 70.997 87.8544 70.997 86.9428 70.9323C86.0311 70.8675 85.026 70.7136 84.278 70.6003L82.2598 70.5436C81.4806 70.406 80.8573 70.0416 80.1171 70.4464C79.7976 70.6003 79.3379 70.7865 79.4625 70.8999C79.4625 71.2238 79.5405 71.4343 79.7742 71.5153C79.8599 71.5153 80.1716 71.8553 80.2417 71.912L80.3352 72.2764C80.3352 72.163 80.3352 72.2764 80.3742 72.2764C80.5296 72.5215 80.7343 72.7286 80.9742 72.8837C80.9742 72.9808 80.9742 73.1671 80.9742 73.2642L80.8495 73.5071C80.8963 73.5071 80.9196 73.3695 80.9118 73.3614C80.904 73.3533 80.9664 73.4505 81.1378 73.5476L81.8235 73.9849L81.6988 73.9363L84.8623 74.5436C84.8623 74.5436 88.0492 75.5557 88.0492 75.5638C89.2648 75.8391 90.9401 76.1792 92.2881 76.4221C97.3762 77.6691 101.732 80.9079 106.812 82.0901C108.404 82.507 110.024 82.7966 111.659 82.9565C113.28 83.0698 115.002 83.3128 116.451 82.6569C118.788 81.4423 118.414 78.0577 117.456 75.9687C117.105 75.159 116.63 74.4788 116.209 73.7339C116.669 74.4545 117.183 75.1347 117.581 75.9039C118.718 78.0982 119.139 81.7014 116.638 83.0617C115.079 83.8715 113.295 83.6123 111.62 83.5395C109.949 83.4265 108.289 83.1747 106.656 82.7864C100.976 81.4747 96.0983 77.7015 90.2933 76.8432C88.3767 76.4518 86.487 75.9297 84.6364 75.2804C84.8156 75.329 81.5196 74.6407 81.5196 74.6569H81.4573C81.0466 74.4381 80.6644 74.1661 80.3196 73.8472C80.2181 73.7261 80.1662 73.5686 80.1749 73.4082C80.1836 73.2478 80.2524 73.0974 80.3664 72.9889L80.2417 73.2318V73.0537L80.3742 73.3695C79.9924 73.0294 79.595 72.7055 79.6651 72.074L79.7586 72.4464L79.408 72.1064L79.5249 72.1792C79.3625 72.1126 79.2164 72.0093 79.0972 71.8767C78.978 71.7442 78.8887 71.5857 78.8357 71.4129C78.7828 71.24 78.7675 71.0571 78.791 70.8773C78.8145 70.6975 78.8762 70.5255 78.9716 70.3736C79.4132 70.0388 79.9176 69.8043 80.4521 69.6853C81.0653 69.6707 81.6757 69.775 82.252 69.993L84.2702 70.1064C86.0154 70.4304 87.7811 70.6226 89.5531 70.6813C90.6422 70.3192 91.7849 70.1628 92.927 70.2197C93.9659 70.7002 94.9175 71.3631 95.7399 72.1792L95.7944 72.163Z" fill="#F5F5F5"/>
<path d="M99.5654 72.4707C100.649 69.7015 101.584 66.8027 101.358 63.7825C101.739 66.6974 101.451 70.1387 99.5654 72.4707Z" fill="#F5F5F5"/>
<path d="M101.193 67.5882C101.25 67.1929 101.4 66.8183 101.63 66.4977C101.86 66.1771 102.162 65.9203 102.51 65.7502C102.733 65.6241 102.968 65.5237 103.211 65.4506C103.063 65.6633 102.894 65.8588 102.705 66.0336C102.172 66.5208 101.668 67.0399 101.193 67.5882Z" fill="#F5F5F5"/>
<path d="M89.6698 57.4668C89.4971 55.797 89.5154 54.1119 89.7244 52.4466C90.2698 49.1268 91.5866 45.7665 90.9711 42.3495C89.6776 41.7422 88.314 39.7503 88.5088 38.5438C88.4975 38.2186 88.5184 37.893 88.5711 37.5722C88.6565 36.8346 88.7787 36.1022 88.9374 35.3779C89.2101 34.8434 89.5373 34.3657 89.8179 33.8151C89.8889 33.6688 89.9779 33.5327 90.0828 33.4103C90.6828 32.9649 90.9866 33.7827 90.9789 34.2766C91.1035 35.224 90.5971 35.9527 90.5113 36.811C90.5425 37.3134 90.71 37.7963 90.9944 38.2037C91.4435 39.2347 92.0028 40.2098 92.6619 41.1106C93.5466 42.9289 94.1313 44.8887 94.3917 46.9081C94.8359 50.8352 95.4748 54.7462 95.5449 58.7137C95.6522 59.8021 95.36 60.8923 94.7268 61.7663C93.9865 62.7299 92.2723 62.5761 91.6568 62.2198C91.5921 62.1812 91.532 62.135 91.4775 62.0821C91.01 61.6692 90.2464 60.9 89.7945 60.4627C87.9007 58.7809 86.4883 56.5904 85.7115 54.1308C84.8076 51.7502 84.7219 49.151 84.0986 46.7462C83.7992 45.9618 83.4204 45.2127 82.9688 44.5114C83.4676 45.1796 83.8911 45.905 84.231 46.6733C84.9635 49.1025 85.1583 51.6207 86.1245 53.9607C86.9342 56.3118 88.3524 58.3852 90.223 59.9526C90.4958 60.1955 91.2905 60.9728 91.5633 61.2157L91.7892 61.4101L91.9451 61.5153H91.9918C91.9581 61.5131 91.9242 61.5131 91.8905 61.5153H91.9762C94.0956 62.3251 94.9761 60.7056 94.8514 58.6733C94.7579 54.7381 94.0723 50.8595 93.6359 46.9486C93.4166 45.0408 92.8898 43.1849 92.0775 41.4588C91.4139 40.5624 90.8469 39.593 90.3867 38.5681C90.1125 38.1775 89.9356 37.7224 89.8717 37.2435C89.8078 36.7645 89.8589 36.2766 90.0204 35.8232C90.296 35.2323 90.3755 34.5632 90.2464 33.9204C90.2845 33.9583 90.3341 33.9812 90.3867 33.9851C90.4802 33.9851 90.5035 33.9851 90.5035 33.9851C90.2152 34.5358 89.8568 35.143 89.5374 35.6774C89.3815 36.228 89.1711 37.7827 89.0854 38.4062C89.0932 38.4896 89.0932 38.5737 89.0854 38.6572C89.1474 39.3307 89.3673 39.9781 89.7259 40.5428C90.0845 41.1074 90.5709 41.5721 91.1425 41.896C91.2237 41.9332 91.2951 41.9901 91.3507 42.062C91.4063 42.1339 91.4445 42.2186 91.462 42.309C92.0386 45.8474 90.6282 49.1996 89.9036 52.5356C89.6437 54.1809 89.5549 55.8504 89.6386 57.5154L89.6698 57.4668Z" fill="#F5F5F5"/>
<path d="M88.4385 44.892C89.4748 46.4223 90.4332 48.2685 90.3241 50.1794C89.8956 48.3332 88.9995 46.7057 88.4385 44.892Z" fill="#F5F5F5"/>
<path d="M105.456 46.1956C105.53 47.8631 105.725 49.5224 106.041 51.1591C106.5 52.73 107.467 54.7624 105.815 56.0174C105.713 56.1389 105.106 56.8271 105.09 57.2077C105.1 57.3127 105.1 57.4184 105.09 57.5235C104.755 58.4142 103.82 58.6895 103.095 59.1429C102.905 59.2486 102.695 59.3121 102.48 59.3291C101.07 58.9486 101.07 57.1348 100.275 56.0903C98.7865 54.0174 98.1086 50.2766 97.3528 47.8312C97.3528 47.9689 95.9814 43.9932 95.9892 44.0256C95.5216 42.6734 94.7269 41.1754 95.6463 39.7665C96.481 38.9992 97.2622 38.1712 97.9839 37.2888C98.203 37.0738 98.3744 36.8117 98.4861 36.5209C98.5978 36.23 98.6471 35.9173 98.6306 35.6046V35.7099L98.2722 34.4629V34.4143C98.2722 33.9609 98.1553 33.1836 98.6852 32.9811C99.028 32.884 99.254 33.3617 99.3007 33.4346C99.815 34.3495 100.493 35.305 100.321 36.4143L100.267 37.1835C100.249 37.4702 100.208 37.7546 100.142 38.0337V37.9123V38.2362C100.142 39.5803 98.7943 40.2361 98.1475 41.143C98.093 41.0216 98.2332 41.2726 98.3501 41.4264C98.5072 41.6279 98.5926 41.8796 98.5917 42.139C98.6296 42.887 98.8465 43.6134 99.2228 44.2523C100.228 46.3657 101.147 48.5762 102.675 50.3332C103.823 51.3924 104.637 52.7862 105.012 54.3332C104.548 52.8215 103.671 51.4826 102.488 50.479C100.851 48.7624 99.8462 46.5681 98.7943 44.4547C98.4904 43.7503 97.9605 42.9163 98.054 42.1147C98.054 41.9527 97.8436 41.6531 97.7268 41.5074C97.3683 41.1106 97.7891 40.6248 98.0151 40.4062C98.5683 39.7746 99.5735 39.0135 99.4955 38.2442V37.9204V37.7989C99.5657 37.2726 99.6046 36.5681 99.6358 36.0337C99.4769 35.2335 99.1467 34.4808 98.6696 33.8313C98.6696 33.7342 98.4748 33.5722 98.6073 33.6694C98.662 33.693 98.723 33.6963 98.7798 33.6785C98.8366 33.6608 98.8857 33.6233 98.9189 33.5722C98.8871 33.8411 98.8871 34.113 98.9189 34.3819V34.2929L99.2851 35.5398C99.3218 35.9465 99.2709 36.3566 99.1361 36.7404C99.0014 37.1241 98.7861 37.4719 98.506 37.7584C97.792 38.6556 97.0103 39.4923 96.1684 40.2604C95.5139 41.2969 96.2619 42.6896 96.6047 43.7989C96.6047 43.7989 97.9527 47.645 97.9605 47.6531C97.9683 47.6612 99.1293 51.7988 99.1293 51.7988C99.4787 53.1871 100.036 54.5096 100.781 55.7178C101.451 56.6085 101.56 58.236 102.495 58.7299C102.627 58.7001 102.754 58.6567 102.877 58.6004C103.524 58.2522 104.342 58.0012 104.638 57.3777C104.678 57.0307 104.785 56.6958 104.954 56.3936C105.123 56.0914 105.35 55.8283 105.62 55.6207C107.046 54.5761 106.165 52.649 105.823 51.1996C105.561 49.5431 105.438 47.8661 105.456 46.1875V46.1956Z" fill="#F5F5F5"/>
<path d="M100.197 42.3171C100.119 43.5155 100.158 44.7462 100.025 45.9203C99.821 45.3382 99.7309 44.7195 99.7603 44.1007C99.7898 43.4818 99.9382 42.8754 100.197 42.3171Z" fill="#F5F5F5"/>
<path d="M97.5624 0.786987C98.0455 4.02583 99.1208 7.01367 101.357 9.35373C102.393 10.6007 103.562 11.9043 104.053 13.5237C104.544 15.1432 104.669 17.1998 103.461 18.6816L102.51 19.7747L102.565 18.2929C102.962 15.6533 101.723 13.8233 99.7598 12.3092C95.4508 9.07033 95.8093 5.45902 97.5624 0.786987V0.786987ZM97.5624 0.786987C94.0872 13.4023 104.271 9.32134 103.601 18.3334L102.705 17.9367C103.593 16.9002 103.484 15.127 103.118 13.8233C102.713 12.3416 101.638 11.1189 100.781 9.88004C98.6779 7.35749 97.5336 4.12414 97.5624 0.786987V0.786987Z" fill="#F5F5F5"/>
<path d="M96.0049 7.50758C95.8803 6.33857 95.3211 5.26643 94.4466 4.51974C93.4833 3.89648 92.702 3.01178 92.1869 1.96106H92.296C90.8877 3.67608 89.3784 5.29862 87.7767 6.81932C86.1559 8.2768 84.2157 9.50756 82.9612 11.297C82.7433 11.769 82.6386 12.2888 82.6562 12.812C82.6739 13.3352 82.8133 13.8461 83.0625 14.3011C83.3474 14.7635 83.6596 15.207 83.9976 15.629C85.1194 17.0929 86.1277 18.6471 87.0131 20.2767C87.4572 21.4265 87.8935 22.5682 87.5117 23.8476C84.7846 21.4184 82.6496 23.8476 81.0211 26.2767C79.899 27.3212 78.4263 27.8961 77.39 28.9244C76.6108 29.969 77.99 30.7058 78.0913 31.7584C78.1065 32.0628 78.2285 32.3508 78.4341 32.5681C79.299 33.807 80.5302 34.9973 80.8496 36.56C80.8496 37.8879 80.5224 39.2321 80.7328 40.5276C81.2626 42.7948 81.6912 45.0944 82.1509 47.3778L81.2704 47.2968C81.6288 46.3737 82.0028 45.4668 82.4548 44.5681C82.9768 43.2725 84.4495 42.4466 84.7924 41.0458C85.3234 39.1464 85.9875 37.2899 86.7793 35.4912C87.7065 33.1268 88.4 30.4872 90.909 29.3779C92.0077 28.7301 93.8777 28.1795 94.7349 29.5722C94.8595 29.7261 94.8362 29.6937 95.0154 29.7342C95.9744 29.7762 96.9298 29.8844 97.875 30.058C99.3009 30.4224 100.454 31.5965 101.693 32.1795C102.646 32.5398 103.522 33.0898 104.272 33.7989C105.62 35.4831 105.908 37.5641 106.111 39.6207C106.314 41.6774 106.111 43.5883 106.29 45.5073L105.379 45.4021C105.984 42.7334 106.958 40.1697 108.269 37.7908C109.625 35.5479 109.493 32.8111 109.329 30.139C109.166 27.467 108.425 19.9124 104.381 22.2524C103.883 22.5277 103.47 23.1512 102.659 23.3941C101.849 23.637 101.35 23.1512 100.688 23.2646C98.9035 23.7261 97.2906 25.1026 95.8101 26.2281C95.1725 26.704 94.6077 27.2772 94.1349 27.9285C94.057 28.0419 93.9868 28.2686 94.0024 28.1228C93.9897 28.1016 93.9706 28.0853 93.948 28.0765C93.9255 28.0677 93.9008 28.0669 93.8777 28.0742C94.579 27.5884 95.1089 26.7625 95.9192 26.39C97.6769 25.405 99.61 24.8043 101.6 24.6249C102.293 24.6249 102.909 24.9407 103.516 24.9245C104.124 24.9083 104.654 24.1876 105.355 24.3415C106.836 24.5844 107.295 26.2119 107.755 27.4184L108.581 29.2645C109.083 30.5352 109.494 31.8424 109.812 33.1754C109.469 31.8713 109.036 30.5941 108.519 29.3536L107.654 27.5074C107.194 26.3658 106.703 24.8111 105.355 24.6249C104.662 24.5277 104.257 25.2888 103.555 25.2645C102.114 25.1674 101.179 24.7949 99.7529 25.3698C97.9529 26.0338 96.0205 26.5601 94.7504 28.1066C94.5658 28.3455 94.3239 28.5298 94.0492 28.641C93.9587 28.6631 93.864 28.6561 93.7774 28.6211C93.6909 28.5861 93.6166 28.5247 93.5643 28.4449C93.512 28.3652 93.4841 28.2708 93.4845 28.1743C93.4848 28.0777 93.5132 27.9836 93.5661 27.9042C94.3453 26.4467 95.8024 25.5479 97.0491 24.552C98.1945 23.7909 99.2152 22.9326 100.618 22.6168C101.249 22.4629 101.958 22.8678 102.511 22.7382C103.064 22.6087 103.415 22.0581 104.07 21.6532C110.077 18.3253 110.529 30.5601 110.303 34.2361C110.256 37.0458 108.285 39.3373 107.444 41.8393L106.329 45.7098L105.612 48.2037L105.418 45.6126C105.098 41.9041 105.862 37.645 103.618 34.5276C102.934 33.926 102.146 33.4669 101.296 33.1754C100.448 32.7155 99.6232 32.2101 98.8256 31.6613C97.6023 30.8516 96.2855 31.0216 94.8751 30.8516C94.5161 30.7971 94.1903 30.6032 93.9635 30.309C93.1843 28.8597 89.9896 31.0135 89.3974 32.0175C88.7429 33.2929 88.1727 34.6131 87.691 35.9689C86.8978 37.73 86.2361 39.5518 85.7118 41.4183C85.3066 42.9729 83.9197 43.6936 83.2651 45.0863C82.6262 46.3413 82.0652 47.8555 81.5431 49.1834C80.9899 46.4061 80.4678 43.5721 79.8445 40.8191C79.7362 39.4857 79.7727 38.144 79.9536 36.8191C79.7899 35.5965 78.4731 34.2523 77.7484 33.1997C77.4443 32.8474 77.2607 32.4005 77.2264 31.9285C77.1796 31.556 77.0705 31.4831 76.8056 31.1188C74.8576 28.2038 78.9484 27.2564 80.4756 25.7666C81.8236 23.6046 84.6833 20.6654 87.4884 23.054L86.9585 23.2565C87.0453 22.7512 86.9995 22.231 86.826 21.7504C86.2339 19.6047 84.7534 17.8557 83.5534 16.0338L83.0625 15.3618C82.5048 14.6587 82.1821 13.7862 82.1431 12.876C82.0935 12.253 82.2413 11.6303 82.5639 11.1027C83.9742 9.21607 85.891 8.05818 87.5585 6.64119C89.207 5.14404 90.7682 3.54607 92.2337 1.85579L92.296 1.79102L92.3427 1.88008C92.8266 2.9335 93.5784 3.82947 94.5167 4.47116C95.3885 5.23904 95.9344 6.33276 96.0361 7.51568L96.0049 7.50758Z" fill="#F5F5F5"/>
<path d="M97.9989 24.7868C98.1626 22.4225 100.337 20.8354 101.84 19.2322C102.397 18.7582 102.918 18.2413 103.399 17.6857C103.227 18.9164 102.401 19.7666 101.739 20.7221C100.601 22.2201 98.9885 23.1998 97.9678 24.7706L97.9989 24.7868Z" fill="#F5F5F5"/>
<path d="M85.29 8.92457C88.3133 7.94482 91.2587 6.20394 92.669 3.15942L92.9261 3.81529C93.0772 4.19296 93.3041 4.53278 93.5917 4.81205C93.8792 5.09131 94.2208 5.30359 94.5936 5.43471C95.4389 5.77576 96.1346 6.42675 96.5494 7.26466C96.0078 6.58432 95.2749 6.0973 94.4534 5.87196C93.9867 5.75924 93.5513 5.53623 93.181 5.22027C92.8107 4.9043 92.5155 4.50388 92.3184 4.05011H92.9106C91.4613 6.94887 88.3367 8.61688 85.29 8.90837V8.92457Z" fill="#F5F5F5"/>
<path d="M97.695 2.18778C97.6249 4.78696 97.9366 7.72621 99.8846 9.57235C100.776 10.5461 101.58 11.6032 102.284 12.7302C103.002 13.8574 103.463 15.1395 103.632 16.4792C103.394 15.1631 102.898 13.9119 102.175 12.8031C101.457 11.69 100.641 10.649 99.7365 9.69381C97.8041 7.79908 97.4535 4.83554 97.6795 2.17969L97.695 2.18778Z" fill="#F5F5F5"/>
<path d="M96.7832 4.12299C96.9136 6.06201 97.5522 7.92696 98.6299 9.51566C99.7286 11.0379 101.443 12.1553 102.191 13.9853C101.303 12.2201 99.6195 11.1837 98.4741 9.62902C97.3815 8.01671 96.7914 6.09489 96.7832 4.12299Z" fill="#F5F5F5"/>
<path d="M92.9106 15.3618C93.8909 16.3108 94.7102 17.425 95.3339 18.6573C95.4427 18.9454 95.4853 19.2559 95.4585 19.5642C95.5361 20.6029 95.735 21.6279 96.0507 22.6168C96.3443 23.1661 96.4487 23.8031 96.3468 24.4224C96.1644 25.5776 95.7815 26.6887 95.217 27.7018C95.0331 27.8942 94.8907 28.1252 94.7994 28.3793C94.708 28.6334 94.6697 28.9048 94.6871 29.1754L93.7755 29.6046C93.869 29.7179 93.8378 29.6694 93.8924 29.7098C93.4355 29.7943 92.9972 29.9644 92.5989 30.2119C92.0926 29.7874 91.6757 29.2593 91.3741 28.6603C91.0725 28.0613 90.8927 27.4043 90.8457 26.7301C90.9236 24.7625 91.1418 22.6815 91.3366 20.6978C91.5704 18.8759 91.8353 16.8678 92.895 15.3618H92.9106ZM92.9106 15.3618C91.8587 17.5966 92.0613 20.1633 91.9288 22.5925C91.9288 22.803 91.8041 26.7139 91.8197 26.7382C91.9227 27.6796 92.3621 28.5465 93.0508 29.1673L92.4664 29.0864C93.0742 28.7868 94.0248 28.2767 94.5858 28.9406L93.6664 29.3698C93.5847 28.729 93.7286 28.0791 94.0716 27.5398C94.9003 26.3994 95.388 25.0309 95.4741 23.6046C94.997 22.1836 94.8009 20.6771 94.8975 19.1755C94.4736 17.7849 93.7994 16.4907 92.9106 15.3618Z" fill="#F5F5F5"/>
<path d="M92.9033 15.5237C93.4442 16.4264 93.6978 17.4831 93.628 18.544C93.5704 19.5783 93.6918 20.6149 93.9864 21.6047C94.8513 23.5288 95.0654 25.7001 94.5942 27.7666C94.8046 25.6856 94.8279 23.5318 93.815 21.6695C93.5356 20.6492 93.4327 19.5854 93.5111 18.5278C93.5925 17.4874 93.3842 16.4446 92.9111 15.5237H92.9033Z" fill="#F5F5F5"/>
<path d="M92.0459 6.37402C92.4368 8.03501 92.9985 9.64751 93.7212 11.1837C94.3461 12.32 94.6487 13.617 94.5939 14.9246L94.5004 16.1715H94.3445C94.7107 14.6007 96.1678 13.629 96.4016 12.0015L96.7756 10.5036L96.4717 12.042C96.3081 13.6614 94.8354 14.706 94.5004 16.2039H94.3445L94.4146 14.9246C94.4747 13.6541 94.2056 12.3902 93.6355 11.2647C92.9192 9.72074 92.3955 8.08813 92.0771 6.40641L92.0459 6.37402Z" fill="#F5F5F5"/>
<path d="M87.9398 10.6978C88.1891 12.6249 88.2748 14.7464 89.3735 16.3658C88.0566 14.8678 87.932 12.6168 87.9398 10.6978Z" fill="#F5F5F5"/>
<path d="M85.6491 8.77879C84.1764 10.9893 83.9349 13.0298 85.205 15.4022C85.5421 16.1676 85.7402 16.9912 85.7894 17.8314C85.1193 16.2524 84.0674 15.046 83.7401 13.3051C83.6626 12.4431 83.7971 11.5748 84.131 10.7816C84.4649 9.98849 84.9873 9.29653 85.6491 8.77069V8.77879Z" fill="#F5F5F5"/>
<path d="M86.1709 12.382C86.3141 14.1208 86.6837 15.8314 87.2696 17.467C88.0793 19.0128 88.7347 20.6407 89.2253 22.3253C88.6144 20.6915 87.9066 19.0988 87.1059 17.5561C86.5095 15.9009 86.1983 14.1494 86.1865 12.382H86.1709Z" fill="#F5F5F5"/>
<path d="M89.4982 18.4387C89.7398 20.9083 89.8723 23.5884 91.2203 25.7261C91.2203 25.7261 91.2904 25.7261 91.2203 25.7746V25.888C90.5273 25.3719 89.9657 24.6883 89.584 23.8961C88.7346 22.2767 89.4437 20.4386 89.3658 18.7059C89.4593 16.9893 88.797 15.0622 89.9034 13.5723C90.1034 13.172 90.4126 12.842 90.7924 12.6235C91.1721 12.405 91.6054 12.3079 92.038 12.3442C92.4706 12.3805 92.8833 12.5487 93.2243 12.8276C93.5654 13.1066 93.8196 13.4839 93.9552 13.9124C94.1973 14.7499 94.3437 15.6142 94.3916 16.4873C94.3232 15.6195 94.1558 14.7633 93.8929 13.9367C92.3968 10.6978 89.0307 13.2565 89.4047 16.0824C89.6179 17.8232 89.5969 19.5864 89.3424 21.3212C89.2418 22.1751 89.3713 23.0413 89.7164 23.8232C90.0992 24.6286 90.6697 25.3217 91.3761 25.8394L91.3138 25.8799C91.1657 25.9771 91.0956 25.8151 91.0333 25.7504C89.771 23.5803 89.6385 20.9488 89.4749 18.463L89.4982 18.4387Z" fill="#F5F5F5"/>
<path d="M91.8204 14.8274C91.6101 16.8679 91.127 18.9893 91.6256 21.0136C90.8464 19.0541 91.3607 16.8031 91.8204 14.8274Z" fill="#F5F5F5"/>
<path d="M96.8455 14.7626C96.8455 14.6169 96.7442 14.9327 96.7287 14.957C96.1218 16.5731 95.6449 18.2387 95.3027 19.9367C95.4162 18.1875 95.8892 16.484 96.6897 14.9408C96.6897 14.9408 96.9001 14.5845 96.8455 14.7626Z" fill="#F5F5F5"/>
<path d="M100.025 13.6533C99.5529 14.8625 98.949 16.0117 98.2255 17.0784C96.8426 18.7003 95.9627 20.718 95.7009 22.8678C95.6385 20.0986 97.345 18.0096 98.8177 15.9205L100.033 13.6533H100.025Z" fill="#F5F5F5"/>
<path d="M99.5806 18.3982C98.1859 19.9528 96.6041 21.548 96.082 23.6613C96.3547 21.4751 98.0222 19.7585 99.5806 18.3982Z" fill="#F5F5F5"/>
<path d="M92.6699 25.6856C93.0989 26.831 93.2358 28.0722 93.0673 29.2888C93.0673 28.0743 92.7712 26.8597 92.6699 25.6856Z" fill="#F5F5F5"/>
<path d="M88.1814 22.7706C88.8593 24.0905 89.7398 25.556 91.2358 25.9609C91.0875 26.1291 90.8877 26.2387 90.6704 26.2712C90.453 26.3037 90.2316 26.257 90.0437 26.139C89.1804 25.5173 88.5027 24.6559 88.0879 23.6532C88.2827 23.9528 88.4619 24.2524 88.6723 24.5358C89.1866 25.1998 90.0748 26.5196 91.0099 25.9366V26.0985C89.5684 25.5965 88.7112 24.1471 88.1658 22.7706H88.1814Z" fill="#F5F5F5"/>
<path d="M109.617 33.2969C103.89 24.1634 104.162 28.0419 95.8327 28.6897C95.5288 28.6897 95.0535 28.6087 94.9678 28.1715C95.0223 27.9124 95.2795 27.8476 95.4665 27.7504C97.7546 27.0425 100.103 26.5653 102.479 26.3253C100.134 26.6517 97.8178 27.1716 95.5522 27.88C94.773 28.2038 95.3496 28.5196 95.8872 28.5358C104.17 27.7261 104.232 24.1796 109.656 33.2969H109.617Z" fill="#F5F5F5"/>
<path d="M94.501 29.4265C96.7295 30.1634 99.0203 30.3739 101.288 30.9245C102.777 31.4478 104.166 32.237 105.394 33.2564C106.205 34.148 106.791 35.2339 107.101 36.4176C107.411 37.6013 107.435 38.8462 107.171 40.0418C107.335 38.8681 107.243 37.6709 106.9 36.5394C106.558 35.408 105.973 34.3716 105.192 33.5075C103.984 32.5435 102.641 31.7788 101.21 31.2403C98.9735 30.6654 96.6593 30.3577 94.5088 29.4265H94.501Z" fill="#F5F5F5"/>
<path d="M104.856 30.39C106.781 30.39 107.623 32.6167 107.537 34.3333L107.49 35.0944C107.49 33.2078 107.007 30.7058 104.856 30.39Z" fill="#F5F5F5"/>
<path d="M83.374 31.9608C84.8779 29.1511 87.9791 24.6734 91.4231 27.1674C91.0633 26.911 90.6487 26.7498 90.2153 26.6977C87.0986 25.9447 84.948 29.7179 83.374 31.9608Z" fill="#F5F5F5"/>
<path d="M87.9634 23.7585C87.0458 23.4455 86.0654 23.3869 85.1193 23.5884C83.8303 24.0844 82.6624 24.8695 81.6987 25.888C81.1315 26.4782 80.4159 26.8907 79.6338 27.0783C80.0113 26.9663 80.3582 26.7639 80.6467 26.4872C81.8623 25.4751 82.8752 24.0095 84.457 23.556C85.5712 22.9164 86.8803 23.305 87.9634 23.7828V23.7585Z" fill="#F5F5F5"/>
<path d="M77.3665 31.0702C77.1406 30.0985 77.086 28.7949 77.834 28.0662C77.5146 29.0459 77.6237 30.0581 77.3665 31.0702Z" fill="#F5F5F5"/>
<path d="M80.7327 41.2726C80.6357 40.3384 80.7782 39.3942 81.1457 38.5357C81.4573 37.7746 81.8392 36.8111 81.3638 36.058C80.8885 35.305 80.3197 34.5844 79.8055 33.8475C79.2912 33.1107 78.7769 32.3415 78.2471 31.6046C78.8713 32.26 79.4617 32.9492 80.0158 33.6694C80.5769 34.39 81.1301 35.0945 81.6521 35.8718C82.1742 36.6491 81.7924 37.8232 81.3794 38.6491C80.9805 39.4634 80.7597 40.3593 80.7327 41.2726Z" fill="#F5F5F5"/>
<path d="M82.7041 43.8312C83.0158 40.5924 83.343 37.3535 84.5352 34.3576C85.2862 32.9333 86.2251 31.6251 87.3247 30.471C88.4468 29.3941 89.8727 27.6937 91.5635 28.2443L91.3064 28.3252C88.026 29.8475 86.0001 33.5641 84.0054 36.5276C84.4807 35.7179 84.9638 34.9082 85.478 34.0985C87.0364 31.8394 88.6961 29.2402 91.283 28.139V28.3171C90.9201 28.2254 90.5379 28.2654 90.1999 28.4305C87.8595 29.8524 85.9444 31.9209 84.6677 34.4062C83.4677 37.3697 83.1093 40.6491 82.7119 43.8231L82.7041 43.8312Z" fill="#F5F5F5"/>
<path d="M97.9054 30.4953C98.1903 31.8984 98.37 33.3224 98.4431 34.7544C98.4443 35.0212 98.3592 35.2807 98.2015 35.4912C97.4632 36.3857 96.7788 37.3267 96.1522 38.309C95.8038 39.1711 95.5173 40.0588 95.2951 40.9648C94.9683 41.9734 94.7871 43.0266 94.7575 44.0903C94.7575 44.0903 94.7107 44.2361 94.6406 44.2685C94.58 44.2979 94.5115 44.3051 94.4464 44.2889C94.3813 44.2728 94.3234 44.2342 94.2822 44.1794C93.3186 42.7522 92.4814 41.2373 91.781 39.6531C91.3446 38.9082 90.6355 38.1066 90.5576 37.1268C90.7196 37.566 90.9514 37.9738 91.2433 38.3333C92.4744 39.7179 93.0744 41.6288 94.1029 43.1916C94.2426 43.4344 94.4016 43.6646 94.5783 43.8798C94.5783 43.8798 94.4692 43.8798 94.438 43.8798C94.4068 43.8798 94.3445 44.0094 94.3523 43.977C94.2977 42.4385 94.8977 40.9244 95.2951 39.4669C95.72 38.0757 96.4852 36.8229 97.5158 35.8313C97.8041 35.475 98.1703 35.1511 98.1625 34.7301C98.1625 33.3212 98.0067 31.8961 97.9054 30.4872V30.4953Z" fill="#F5F5F5"/>
<path d="M94.8274 30.7463L95.2248 33.3212C95.9338 36.2281 94.765 38.9892 93.7988 41.6936L93.9001 40.8839C94.3316 38.3675 94.5118 35.8114 94.4378 33.2564C94.4613 32.4048 94.3827 31.5535 94.204 30.722C94.6559 32.3415 94.4845 34.1147 94.5858 35.8151C94.5235 37.5236 94.2819 39.2159 94.0716 40.9082L93.9079 40.8677C94.8429 38.4386 95.739 35.9447 95.1468 33.3212L94.8274 30.7463Z" fill="#F5F5F5"/>
<path d="M90.5498 31.2078C92.0044 34.4249 93.2007 37.7615 94.1263 41.1834C94.1263 41.1834 94.0561 41.3292 93.986 41.2563C93.9159 41.1834 93.9315 41.1834 93.8847 41.1349C93.838 41.0863 93.6977 40.7867 93.6432 40.6976C92.0224 37.8231 91.1186 34.6086 90.168 31.4507C91.0874 33.9203 91.7264 36.5114 92.8874 38.8596C93.1601 39.4021 93.6665 40.3818 93.9471 40.9C93.9471 40.9 94.0406 41.062 94.0717 41.0944C94.0717 41.0944 94.1029 41.1268 94.0717 41.0944C94.0717 41.0944 93.9393 41.1673 93.9626 41.1673C93.7367 40.3575 93.4795 39.475 93.238 38.6329C92.8094 36.8839 91.1965 32.9649 90.5498 31.1997V31.2078Z" fill="#F5F5F5"/>
<path d="M86.5917 61.1672C86.8566 61.0376 86.8956 60.7218 86.919 60.4627C86.945 60.1935 86.945 59.9222 86.919 59.653C86.8387 59.108 86.7321 58.5675 86.5995 58.0336C86.4826 57.483 86.3346 56.9324 86.2021 56.4142C86.0696 55.8959 85.9138 55.313 85.8125 54.7462C86.3277 55.7722 86.7202 56.8599 86.9813 57.985C87.1223 58.5487 87.2007 59.1274 87.2151 59.7097C87.224 60.0034 87.1978 60.2971 87.1371 60.5842C87.028 60.7623 86.9034 61.1267 86.5917 61.1672Z" fill="#F5F5F5"/>
<path d="M153.54 64.9647C153.716 65.1941 153.807 65.4813 153.797 65.7744C153.805 65.9669 153.767 66.1584 153.687 66.3321C153.607 66.5058 153.487 66.6563 153.337 66.7704C152.932 67.0323 152.457 67.1542 151.981 67.1185H149.761V62.0983H151.841C152.283 62.0705 152.723 62.1896 153.096 62.4384C153.24 62.5451 153.356 62.6878 153.434 62.8533C153.511 63.0188 153.548 63.2019 153.54 63.3858C153.549 63.6388 153.481 63.8884 153.345 64.0983C153.208 64.2943 153.018 64.4437 152.8 64.5275C153.086 64.5834 153.347 64.7373 153.54 64.9647ZM150.267 62.5356V64.3574H151.826C152.143 64.3768 152.458 64.2948 152.729 64.1226C152.828 64.0423 152.908 63.9397 152.963 63.8226C153.018 63.7054 153.047 63.5768 153.047 63.4465C153.047 63.3162 153.018 63.1876 152.963 63.0704C152.908 62.9533 152.828 62.8507 152.729 62.7704C152.458 62.5982 152.143 62.5162 151.826 62.5356H150.267ZM152.955 66.4465C153.064 66.3666 153.151 66.2592 153.208 66.1345C153.266 66.0097 153.291 65.8718 153.283 65.7339C153.283 65.1105 152.846 64.7947 151.974 64.7947H150.267V66.6813H151.942C152.294 66.713 152.647 66.634 152.955 66.4546V66.4465Z" fill="#F5F5F5"/>
<path d="M160.794 65.3939V67.1267H160.288V65.3939L158.355 62.1064H158.901L160.561 64.9242L162.212 62.1064H162.727L160.794 65.3939Z" fill="#F5F5F5"/>
<path d="M177.913 62.1064V67.1267H177.407V64.8109H174.391V67.1267H173.877V62.1064H174.391V64.3412H177.407V62.1064H177.913Z" fill="#F5F5F5"/>
<path d="M186.788 65.7825H184.1L183.523 67.1267H182.993L185.198 62.1064H185.705L187.91 67.1267H187.372L186.788 65.7825ZM186.609 65.3534L185.448 62.657L184.287 65.3534H186.609Z" fill="#F5F5F5"/>
<path d="M194.362 65.3939V67.1267H193.855V65.3939L191.923 62.1064H192.468L194.12 64.9242L195.78 62.1064H196.294L194.362 65.3939Z" fill="#F5F5F5"/>
<path d="M201.258 62.1064H201.811V66.6651H204.515V67.1267H201.297L201.258 62.1064Z" fill="#F5F5F5"/>
<path d="M213.016 66.6651V67.1267H209.604V62.1064H212.915V62.568H210.118V64.3493H212.611V64.8028H210.118V66.6651H213.016Z" fill="#F5F5F5"/>
<path d="M220.083 65.3939V67.1267H219.577V65.3939L217.652 62.1064H218.174L219.834 64.9242L221.486 62.1064H222L220.083 65.3939Z" fill="#F5F5F5"/>
</svg>
